<?xml version="1.0" encoding="UTF-8" standalone="no"?>
<!-- Created with Inkscape (http://www.inkscape.org/) -->

<svg
   width="512"
   height="512"
   viewBox="0 0 512 512"
   version="1.1"
   id="svg1"
   xml:space="preserve"
   inkscape:version="1.3.2 (1:1.3.2+202311252150+091e20ef0f)"
   sodipodi:docname="icon.svg"
   xmlns:inkscape="http://www.inkscape.org/namespaces/inkscape"
   xmlns:sodipodi="http://sodipodi.sourceforge.net/DTD/sodipodi-0.dtd"
   xmlns="http://www.w3.org/2000/svg"
   xmlns:svg="http://www.w3.org/2000/svg"><sodipodi:namedview
     id="namedview1"
     pagecolor="#505050"
     bordercolor="#eeeeee"
     borderopacity="1"
     inkscape:showpageshadow="0"
     inkscape:pageopacity="0"
     inkscape:pagecheckerboard="0"
     inkscape:deskcolor="#505050"
     inkscape:document-units="px"
     inkscape:zoom="1.4921875"
     inkscape:cx="256"
     inkscape:cy="255.66492"
     inkscape:window-width="1920"
     inkscape:window-height="991"
     inkscape:window-x="0"
     inkscape:window-y="0"
     inkscape:window-maximized="1"
     inkscape:current-layer="layer1" /><defs
     id="defs1" /><g
     inkscape:label="Calque 1"
     inkscape:groupmode="layer"
     id="layer1"><g
       id="g2"
       transform="matrix(0.75289924,0,0,0.76281269,7.842864,44.668846)"><rect
         width="400"
         height="270"
         x="56"
         y="187.19"
         fill="#fd4755"
         rx="135"
         id="rect1" /><path
         fill="#e8edf2"
         d="M 308.83,147.38 A 7.49,7.49 0 0 1 302,143 L 256,40.77 210,143 a 7.5014665,7.5014665 0 1 1 -13.68,-6.16 L 249.16,19.42 a 7.5,7.5 0 0 1 13.68,0 l 52.83,117.38 a 7.5,7.5 0 0 1 -6.84,10.58 z"
         id="path1-3" /><circle
         cx="256"
         cy="27.5"
         r="20"
         fill="#554e56"
         id="circle1-6" /><ellipse
         cx="256"
         cy="322.19"
         fill="#fee903"
         rx="135.58"
         ry="158.64999"
         id="ellipse1" /><path
         fill="#fb2b3a"
         d="M 400.27,212.92 A 134.36,134.36 0 0 1 426,292.19 v 0 a 134.73,134.73 0 0 1 -50.7,105.45 c -12,9.6 -25.65,32.19 -40.48,37.28 -10.95,3.76 -22.53,-8.86 -34.55,-8 q -4.59,0.31 -9.27,0.31 h -79.12 l -20.88,15 c -2.27,0 -34.53,-15.06 -36.77,-15.17 A 134.22,134.22 0 0 1 81.73,401.5 134.79,134.79 0 0 0 191,457.19 h 130 a 135,135 0 0 0 135,-135 v 0 A 134.81,134.81 0 0 0 400.27,212.92 Z"
         id="path2-7" /><path
         fill="#f4d902"
         d="M 375.3,397.63 A 134.45,134.45 0 0 1 291,427.19 H 161 c -2.27,0 -4.53,-0.07 -6.77,-0.19 a 144.1,144.1 0 0 0 30.3,30 c 2.14,0.1 4.3,0.17 6.47,0.17 h 130 c 2.17,0 4.32,-0.06 6.46,-0.16 C 347.48,442.47 364,422 375.3,397.63 Z"
         id="path3-5" /><ellipse
         cx="256"
         cy="322.19"
         fill="#fd4755"
         rx="64.150002"
         ry="144.64"
         id="ellipse3" /><path
         fill="#fb2b3a"
         d="m 291,427.19 h -79.12 c 6,12.88 13.17,23.14 21.06,30 h 46.12 c 8,-6.91 15.15,-17.29 21.21,-30.32 q -4.59,0.31 -9.27,0.32 z"
         id="path4-3" /><path
         fill="#554e56"
         d="M 330,504.5 H 182 a 15,15 0 0 1 -15,-15 v -34.44 h 178 v 34.44 a 15,15 0 0 1 -15,15 z"
         id="path5-5" /><path
         fill="#433f43"
         d="m 315,455.06 v 0 A 34.44,34.44 0 0 1 280.55,489.5 H 167 a 15,15 0 0 0 15,15 h 148 a 15,15 0 0 0 15,-15 v -34.45 z"
         id="path6-6" /><path
         fill="#554e56"
         d="M 345,189.33 H 167 v -34.45 a 15,15 0 0 1 15,-15 h 148 a 15,15 0 0 1 15,15 z"
         id="path7-2" /><path
         fill="#433f43"
         d="m 330,139.88 h -30 a 15,15 0 0 1 15,15 v 34.45 h 30 v -34.45 a 15,15 0 0 0 -15,-15 z"
         id="path8-9" /></g><g
       id="g3"
       transform="translate(114.76701,0.10209506)"><path
         fill="#e8edf2"
         d="M 308.83,147.38 A 7.49,7.49 0 0 1 302,143 L 256,40.77 210,143 a 7.5014665,7.5014665 0 1 1 -13.68,-6.16 L 249.16,19.42 a 7.5,7.5 0 0 1 13.68,0 l 52.83,117.38 a 7.5,7.5 0 0 1 -6.84,10.58 z"
         id="path1-1" /><path
         fill="#554e56"
         d="m 167,442.19 h 178 v 47.31 a 15,15 0 0 1 -15,15 H 182 a 15,15 0 0 1 -15,-15 z"
         id="path2-2" /><path
         fill="#433f43"
         d="M 315,442.19 A 47.31,47.31 0 0 1 267.69,489.5 H 167 a 15,15 0 0 0 15,15 h 148 a 15,15 0 0 0 15,-15 v -47.31 z"
         id="path3-7" /><path
         fill="#554e56"
         d="m 182,139.83 h 148 a 15,15 0 0 1 15,15 v 47.31 H 167 v -47.31 a 15,15 0 0 1 15,-15 z"
         id="path4-0" /><path
         fill="#433f43"
         d="m 330,139.83 h -30 a 15,15 0 0 1 15,15 v 47.31 h 30 v -47.31 a 15,15 0 0 0 -15,-15 z"
         id="path5-9" /><rect
         width="229.32001"
         height="270.04999"
         x="141.34"
         y="187.14"
         fill="#fdb441"
         rx="50"
         id="rect5" /><path
         fill="#fea613"
         d="m 326.71,187.52 a 49.8,49.8 0 0 1 14,34.62 v 170.05 a 50,50 0 0 1 -50,50 H 161.34 a 50.26,50.26 0 0 1 -6.05,-0.38 49.81,49.81 0 0 0 36.05,15.38 h 129.32 a 50,50 0 0 0 50,-50 v -170 a 50,50 0 0 0 -43.95,-49.67 z"
         id="path6-3" /><rect
         width="124.32"
         height="270.04999"
         x="193.84"
         y="187.14"
         fill="#fee903"
         rx="50"
         id="rect6" /><path
         fill="#f4d902"
         d="m 318.16,237.14 a 50,50 0 0 0 -50,-50 h -24.32 c -1,0 -1.9,0 -2.84,0.08 a 50,50 0 0 1 47.16,49.92 V 407.6 A 35.08,35.08 0 0 1 253,442.19 h -44.85 a 49.84,49.84 0 0 0 35.69,15 h 24.32 c 0.91,0 1.81,0 2.71,-0.07 a 49.77,49.77 0 0 0 31.57,-13.55 c 0.6,-0.57 0,0 1.88,-1.87 a 49.81,49.81 0 0 0 13.84,-34.51 z"
         id="path7-6" /><circle
         cx="256"
         cy="27.5"
         r="20"
         fill="#554e56"
         id="circle7" /></g></g></svg>
